<?xml version="1.0" standalone="no"?>
<!DOCTYPE svg PUBLIC "-//W3C//DTD SVG 20010904//EN"
 "http://www.w3.org/TR/2001/REC-SVG-20010904/DTD/svg10.dtd">
<svg version="1.0" xmlns="http://www.w3.org/2000/svg"
 width="421.000000pt" height="377.000000pt" viewBox="0 0 421.000000 377.000000"
 preserveAspectRatio="xMidYMid meet">
<metadata>
Created by potrace 1.16, written by Peter Selinger 2001-2019
</metadata>
<g transform="translate(0.000000,377.000000) scale(0.100000,-0.100000)"
fill="#000000" stroke="none">
<path d="M1977 3729 c-32 -11 -75 -31 -95 -44 -20 -14 -437 -359 -927 -767
-749 -625 -894 -750 -913 -788 -22 -43 -23 -54 -20 -237 4 -259 -23 -237 288
-243 142 -3 243 -9 249 -15 7 -7 11 -253 13 -710 l3 -700 24 -52 c28 -64 81
-114 147 -139 45 -18 81 -19 454 -19 223 0 418 4 433 8 54 15 57 39 57 439 0
448 8 493 105 606 156 180 437 191 605 23 55 -55 106 -150 115 -215 3 -23 7
-214 8 -424 l2 -384 28 -24 29 -25 437 3 438 3 49 30 c58 36 108 106 123 172
6 30 10 298 11 727 0 529 3 682 13 688 6 4 117 8 245 8 l234 0 29 29 29 29 0
184 c-1 190 -9 238 -47 280 -31 35 -1807 1512 -1838 1529 -91 51 -229 62 -328
28z"/>
<path d="M2875 3706 c-16 -7 -41 -26 -55 -41 -23 -24 -25 -34 -25 -123 l0 -97
361 -302 361 -301 7 331 c4 183 4 360 0 395 -8 76 -36 122 -84 139 -52 18
-525 17 -565 -1z"/>
</g>
</svg>
